<svg xmlns="http://www.w3.org/2000/svg" xmlns:xlink="http://www.w3.org/1999/xlink" version="1.1" id="Layer_1" x="0px" y="0px" width="100px" height="100px" viewBox="0 0 100 100" enable-background="new 0 0 100 100" xml:space="preserve">
<g>
	<path d="M13.102,44.411l4.182,4.184h2.093l1.046,1.048v2.09l-1.046,1.046v4.186l1.046,1.044V60.1l5.229,5.231v10.46l2.092,2.092   v4.185l2.095,2.092h2.09v-2.092l-1.047-1.049v-2.093l3.138-3.135v-2.095l4.183-4.183l0.002-2.09l4.183-4.188l0.001-2.088   l2.09-2.092v-2.093l-2.092-2.092h-2.091l-2.094-2.094h-2.09l-4.184-4.184h-2.09l-2.095-2.092h-4.182l-1.046,1.045h-2.092   l-5.231-5.229h-2.09l-1.736-1.733c-0.249,1.18-0.44,2.382-0.588,3.596l0.23,0.229H13.102z"/>
	<path d="M31.928,13.033l4.184,4.185l2.09-2.094v-2.091l-2.09-2.092l0.997-0.997c-3.327,1.34-6.448,3.083-9.296,5.18h2.025   L31.928,13.033z"/>
	<path d="M19.377,36.047l8.366-8.371h2.095l4.181-4.183h2.093l2.09-2.093l-2.09-2.09h-2.093v-2.091h-2.091l-5.229,5.228L23.253,19   c-4.991,4.88-8.792,10.973-10.909,17.802l0.757-0.755H19.377z"/>
	<path d="M41.34,9.896h2.093l1.045,1.045v2.092l-2.092,2.091l2.092,2.094h2.091l2.094-2.094h2.092l2.09-2.091h2.095l5.228-5.229   l-0.356-0.358c-2.244-0.367-4.545-0.567-6.891-0.567c-4.367,0-8.581,0.665-12.549,1.894l-0.076,0.076L41.34,9.896z"/>
	<polygon points="88.409,67.424 88.409,65.331 90.5,63.236 90.5,61.148 89.455,60.1 86.318,63.236 86.318,67.424 87.364,68.468  "/>
	<polygon points="59.109,23.493 61.203,23.493 63.295,21.399 63.295,19.309 61.203,19.309 59.109,21.399  "/>
	<path d="M66.443,18.261l1.05,1.048l-0.004,2.09l-2.103,2.093h-2.091l-1.046,1.046l1.046,1.046v2.091h-4.186l-1.046,1.046v2.092   l1.06,1.046h2.094l4.182-4.184h2.094l1.042-1.046l2.092,2.092l1.049-1.046l2.09,2.092h2.092l2.09,2.092h4.186v2.092l-1.046,1.048   h-4.182l-1.047-1.048h-2.092l-1.045,1.048l-1.045-1.048h-2.093l-2.089-2.092h-4.187l-1.044,1.048h-2.094l-5.228,5.229v8.367   l4.183,4.186h4.183l1.046-1.046h2.091l1.05,1.046v4.184l3.133,3.136V60.1l-1.044,1.049v4.183l1.044,1.046v2.091l1.049,1.046v2.094   l2.09,2.089h2.092l4.187-4.183v-2.09l5.226-5.23V60.1l-1.047-1.043v-4.185l6.276-6.277v-2.092h-4.182l-2.094-2.092v-2.092   l-3.135-3.136l-0.002-2.095l1.046-1.042v2.089l4.185,4.184v2.092l1.046,1.048l1.045-1.048H90.5l3.947-3.945   c-0.045-0.207-0.096-0.414-0.144-0.62l-1.712-1.71H90.5l-2.091-2.089l1.046-1.048l2.091,2.09h2.031   c-3.059-10.125-9.796-18.668-18.658-24.056h-3.244L66.443,18.261z"/>
</g>
<path d="M75.213,69.729c0.321,0.322,0.642,0.644,0.963,0.965c-0.586,0.474-0.84,1.127-0.76,1.959  c-0.521-0.521-1.042-1.043-1.563-1.564"/>
<path d="M75.213,69.729c-0.322-0.321-0.644-0.643-0.965-0.964c-0.475,0.586-1.128,0.84-1.958,0.76  c0.521,0.521,1.043,1.045,1.563,1.563"/>
<path d="M84.422,67.979c-2.443-2.445-4.887-4.889-7.332-7.334c-0.077-0.077-0.138-0.053-0.209,0.019  c-1.639,1.64-3.278,3.277-4.917,4.917c-0.04,0.04-0.061,0.075-0.062,0.112c-0.007,0.036,0.004,0.073,0.044,0.112  c2.444,2.443,4.888,4.889,7.332,7.331c0.078,0.078,0.138,0.055,0.209-0.016c1.64-1.639,3.278-3.278,4.917-4.917  c0.04-0.041,0.063-0.077,0.063-0.114C84.475,68.054,84.463,68.018,84.422,67.979z"/>
<rect x="73.5" y="63.865" transform="matrix(0.707 0.7072 -0.7072 0.707 70.1136 -35.9374)" fill="#000000" width="9.861" height="5.576"/>
<path fill="#000000" stroke="#000000" stroke-miterlimit="10" d="M75.213,69.729c-0.322-0.321-0.644-0.643-0.965-0.964  c-0.475,0.586-1.128,0.84-1.958,0.76c0.521,0.521,1.043,1.045,1.563,1.563"/>
<path fill="#000000" stroke="#000000" stroke-miterlimit="10" d="M75.213,69.729c0.321,0.322,0.642,0.644,0.963,0.965  c-0.586,0.474-0.84,1.127-0.76,1.959c-0.521-0.521-1.042-1.043-1.563-1.564"/>
<path d="M26.232,26.779c0.321,0.321,0.642,0.642,0.963,0.964c-0.586,0.473-0.839,1.127-0.76,1.958  c-0.521-0.521-1.042-1.042-1.563-1.563"/>
<path d="M26.232,26.779c-0.322-0.323-0.644-0.643-0.964-0.965c-0.474,0.586-1.127,0.84-1.959,0.76  c0.521,0.521,1.043,1.043,1.563,1.563"/>
<path d="M35.442,25.026c-2.444-2.444-4.888-4.887-7.333-7.332c-0.077-0.078-0.138-0.054-0.209,0.017  c-1.639,1.64-3.277,3.278-4.917,4.917c-0.04,0.041-0.061,0.076-0.063,0.114c-0.006,0.035,0.006,0.071,0.046,0.111  c2.444,2.444,4.887,4.888,7.331,7.333c0.078,0.076,0.139,0.055,0.209-0.018c1.639-1.637,3.278-3.277,4.918-4.917  c0.038-0.039,0.061-0.076,0.062-0.114C35.495,25.102,35.483,25.066,35.442,25.026z"/>
<rect x="24.52" y="20.914" transform="matrix(0.7071 0.7071 -0.7071 0.7071 25.3857 -13.8822)" fill="#000000" width="9.861" height="5.577"/>
<path fill="#000000" d="M26.232,26.779c-0.322-0.323-0.644-0.643-0.964-0.965c-0.474,0.586-1.127,0.84-1.959,0.76  c0.521,0.521,1.043,1.043,1.563,1.563"/>
<path fill="#000000" d="M26.232,26.779c0.321,0.321,0.642,0.642,0.963,0.964c-0.586,0.473-0.839,1.127-0.76,1.958  c-0.521-0.521-1.042-1.042-1.563-1.563"/>
<path d="M23.881,46.509c0,0.457,0,0.91,0,1.365c-0.75-0.08-1.392,0.202-1.922,0.849c0-0.739,0-1.475,0-2.214"/>
<path d="M23.881,46.509c0-0.454,0-0.908,0-1.363c-0.75,0.08-1.392-0.201-1.922-0.847c0,0.737,0,1.475,0,2.21"/>
<path d="M31.462,41.273c-2.318,0-4.636,0-6.955,0c-0.099,0-0.16,0.027-0.16,0.136c0,0.005,0,0.011,0,0.016c0,3.45,0,6.9,0,10.353  c0,0.005,0,0.011,0,0.017c0,0.109,0.061,0.136,0.16,0.136c2.318,0,4.636,0,6.955,0c0.099,0,0.159-0.026,0.159-0.136  c0-0.006,0-0.012,0-0.017c0-3.452,0-6.902,0-10.353c0-0.007,0-0.011,0-0.016C31.622,41.301,31.562,41.273,31.462,41.273z"/>
<rect x="25.544" y="41.681" fill="#000000" width="5.576" height="9.859"/>
<path d="M23.881,46.509c0-0.454,0-0.908,0-1.363c-0.75,0.08-1.392-0.201-1.922-0.847c0,0.737,0,1.475,0,2.21"/>
<path d="M23.881,46.509c0,0.457,0,0.91,0,1.365c-0.75-0.08-1.392,0.202-1.922,0.849c0-0.739,0-1.475,0-2.214"/>
<path d="M52.489,15.127c-0.454,0-0.908,0-1.364,0c0.08-0.75-0.204-1.392-0.848-1.923c0.737,0,1.475,0,2.211,0"/>
<path d="M52.489,15.127c0.455,0,0.909,0,1.364,0c-0.081-0.75,0.203-1.392,0.848-1.923c-0.738,0-1.475,0-2.212,0"/>
<path d="M57.573,15.595c-3.457,0-6.914,0-10.368,0c-0.111,0-0.136,0.06-0.136,0.16c0,2.318,0,4.635,0,6.954  c0,0.099,0.025,0.16,0.136,0.16c3.455,0,6.912,0,10.368,0c0.111,0,0.136-0.061,0.136-0.16c0-2.319,0-4.636,0-6.954  C57.709,15.655,57.684,15.595,57.573,15.595z M57.32,22.367h-9.861V16.79h9.861V22.367z"/>
<path d="M52.489,15.127c0.455,0,0.909,0,1.364,0c-0.081-0.75,0.203-1.392,0.848-1.923c-0.738,0-1.475,0-2.212,0"/>
<path d="M52.489,15.127c-0.454,0-0.908,0-1.364,0c0.08-0.75-0.204-1.392-0.848-1.923c0.737,0,1.475,0,2.211,0"/>
<path d="M32.558,70.498c-0.454,0-0.908,0-1.364,0c0.08-0.752-0.203-1.393-0.848-1.924c0.737,0,1.475,0,2.211,0"/>
<path d="M32.558,70.498c0.455,0,0.909,0,1.364,0c-0.08-0.752,0.204-1.393,0.848-1.924c-0.738,0-1.475,0-2.212,0"/>
<path d="M37.642,70.964c-3.456,0-6.913,0-10.368,0c-0.11,0-0.136,0.06-0.136,0.159c0,2.318,0,4.638,0,6.955  c0,0.1,0.026,0.159,0.136,0.159c3.456,0,6.913,0,10.368,0c0.111,0,0.136-0.06,0.136-0.159c0-2.317,0-4.637,0-6.955  C37.778,71.023,37.753,70.964,37.642,70.964z"/>
<rect x="27.528" y="72.159" fill="#000000" width="9.861" height="5.577"/>
<path fill="#000000" stroke="#000000" stroke-miterlimit="10" d="M32.558,70.498c0.455,0,0.909,0,1.364,0  c-0.08-0.752,0.204-1.393,0.848-1.924c-0.738,0-1.475,0-2.212,0"/>
<path fill="#000000" stroke="#000000" stroke-miterlimit="10" d="M32.558,70.498c-0.454,0-0.908,0-1.364,0  c0.08-0.752-0.203-1.393-0.848-1.924c0.737,0,1.475,0,2.211,0"/>
<path d="M73.526,26.146c-0.323-0.322-0.643-0.643-0.965-0.964c0.586-0.474,0.84-1.127,0.76-1.958  c0.521,0.521,1.043,1.042,1.563,1.563"/>
<path d="M73.526,26.146c0.321,0.322,0.643,0.642,0.964,0.963c0.475-0.586,1.127-0.839,1.958-0.76  c-0.521-0.52-1.042-1.042-1.563-1.563"/>
<path d="M76.791,30.056c-2.445-2.443-4.888-4.888-7.333-7.332c-0.077-0.079-0.138-0.055-0.208,0.016  c-1.641,1.639-3.279,3.279-4.918,4.917c-0.04,0.039-0.062,0.076-0.062,0.114c-0.007,0.034,0.005,0.07,0.043,0.11  c2.445,2.444,4.889,4.89,7.333,7.334c0.079,0.076,0.14,0.053,0.21-0.018c1.64-1.64,3.279-3.277,4.917-4.919  c0.041-0.039,0.062-0.075,0.062-0.112C76.842,30.132,76.831,30.097,76.791,30.056z"/>
<rect x="65.377" y="26.434" transform="matrix(0.7071 0.7071 -0.7071 0.7071 41.2562 -41.156)" fill="#000000" width="9.861" height="5.576"/>
<path fill="#000000" stroke="#FFFFFF" stroke-miterlimit="10" d="M73.526,26.146c0.321,0.322,0.643,0.642,0.964,0.963  c0.475-0.586,1.127-0.839,1.958-0.76c-0.521-0.52-1.042-1.042-1.563-1.563"/>
<path fill="#000000" stroke="#FFFFFF" stroke-miterlimit="10" d="M73.526,26.146c-0.323-0.322-0.643-0.643-0.965-0.964  c0.586-0.474,0.84-1.127,0.76-1.958c0.521,0.521,1.043,1.042,1.563,1.563"/>
<path d="M85.93,46.518c0.197-0.41,0.394-0.821,0.591-1.229c0.641,0.398,1.341,0.42,2.1,0.068c-0.319,0.664-0.639,1.329-0.958,1.994"/>
<path d="M85.93,46.518c-0.196,0.407-0.394,0.818-0.591,1.229c0.71,0.254,1.166,0.787,1.366,1.597  c0.319-0.664,0.639-1.328,0.958-1.992"/>
<path d="M86.754,41.002c-2.089-1.003-4.179-2.007-6.268-3.012c-0.09-0.042-0.154-0.043-0.202,0.055  c-0.001,0.005-0.004,0.009-0.006,0.015c-1.494,3.108-2.989,6.22-4.483,9.33c-0.001,0.005-0.004,0.011-0.007,0.014  c-0.048,0.101-0.005,0.148,0.085,0.192c2.089,1.004,4.178,2.006,6.269,3.01c0.088,0.044,0.154,0.048,0.202-0.052  c0.003-0.006,0.006-0.009,0.007-0.015c1.495-3.11,2.989-6.222,4.483-9.331c0.003-0.005,0.005-0.009,0.007-0.015  C86.887,41.096,86.845,41.046,86.754,41.002z"/>
<rect x="78.21" y="39.227" transform="matrix(0.9014 0.433 -0.433 0.9014 27.1047 -30.716)" fill="#000000" width="5.576" height="9.86"/>
<path fill="#000000" stroke="#000000" stroke-width="0.75" stroke-miterlimit="10" d="M85.93,46.518  c-0.196,0.407-0.394,0.818-0.591,1.229c0.71,0.254,1.166,0.787,1.366,1.597c0.319-0.664,0.639-1.328,0.958-1.992"/>
<path fill="#000000" stroke="#000000" stroke-width="0.5" stroke-miterlimit="10" d="M85.93,46.518  c0.197-0.41,0.394-0.821,0.591-1.229c0.641,0.398,1.341,0.42,2.1,0.068c-0.319,0.664-0.639,1.329-0.958,1.994"/>
<path d="M52.635,65.532c0.321-0.323,0.642-0.644,0.964-0.965c0.474,0.585,1.127,0.839,1.958,0.759  c-0.521,0.521-1.043,1.043-1.564,1.564"/>
<path d="M52.635,65.532c-0.322,0.321-0.643,0.643-0.965,0.963c0.587,0.476,0.84,1.129,0.761,1.959  c0.521-0.521,1.042-1.04,1.563-1.563"/>
<path d="M56.024,61.257c-1.638-1.64-3.278-3.279-4.918-4.919c-0.069-0.068-0.13-0.095-0.208-0.016  c-2.444,2.444-4.887,4.887-7.332,7.332c-0.078,0.075-0.052,0.138,0.017,0.209c1.641,1.64,3.278,3.278,4.918,4.916  c0.07,0.071,0.129,0.096,0.208,0.017c2.443-2.442,4.886-4.888,7.332-7.332C56.119,61.388,56.093,61.325,56.024,61.257z   M48.043,67.771L44.1,63.828l6.973-6.974l3.944,3.945L48.043,67.771z"/>
<path d="M52.635,65.532c-0.322,0.321-0.643,0.643-0.965,0.963c0.587,0.476,0.84,1.129,0.761,1.959  c0.521-0.521,1.042-1.04,1.563-1.563"/>
<path d="M52.635,65.532c0.321-0.323,0.642-0.644,0.964-0.965c0.474,0.585,1.127,0.839,1.958,0.759  c-0.521,0.521-1.043,1.043-1.564,1.564"/>
<path d="M63.044,84.826c0.455,0,0.909,0,1.363,0c-0.08,0.748,0.204,1.391,0.847,1.92c-0.736,0-1.473,0-2.21,0"/>
<path d="M63.044,84.826c-0.456,0-0.91,0-1.365,0c0.079,0.748-0.203,1.391-0.847,1.92c0.737,0,1.474,0,2.21,0"/>
<path d="M68.329,77.068c-3.457,0-6.914,0-10.369,0c-0.11,0-0.136,0.06-0.136,0.161c0,0.006,0,0.009,0,0.015c0,2.312,0,4.624,0,6.938  c0,0.007,0,0.012,0,0.015c0,0.1,0.026,0.159,0.136,0.159c3.456,0,6.913,0,10.369,0c0.111,0,0.135-0.06,0.135-0.159  c0-0.006,0-0.009,0-0.015c0-2.314,0-4.627,0-6.938c0-0.008,0-0.011,0-0.015C68.464,77.128,68.44,77.068,68.329,77.068z   M68.075,83.164h-9.86v-5.578h9.86V83.164z"/>
<path d="M63.044,84.826c-0.456,0-0.91,0-1.365,0c0.079,0.748-0.203,1.391-0.847,1.92c0.737,0,1.474,0,2.21,0"/>
<path d="M63.044,84.826c0.455,0,0.909,0,1.363,0c-0.08,0.748,0.204,1.391,0.847,1.92c-0.736,0-1.473,0-2.21,0"/>
<path d="M61.035,37.824c-5.763,0-11.527,0-17.291,0c-0.184,0-0.227,0.102-0.227,0.266c0,3.865,0,7.732,0,11.599  c0,0.162,0.042,0.264,0.227,0.264c5.763,0,11.526,0,17.291,0c0.183,0,0.225-0.102,0.225-0.264c0-3.866,0-7.733,0-11.599  C61.26,37.926,61.218,37.824,61.035,37.824z"/>
<rect x="44.167" y="38.662" fill="#000000" width="16.445" height="9.299"/>
<path d="M52.222,50.733c-0.757,0-1.515,0-2.273,0c0.132,1.25-0.339,2.32-1.415,3.204c1.23,0,2.459,0,3.688,0"/>
<path d="M52.222,50.733c0.758,0,1.516,0,2.273,0c-0.132,1.25,0.34,2.32,1.416,3.204c-1.23,0-2.46,0-3.689,0"/>
<path d="M52.222,50.733c0.758,0,1.516,0,2.273,0c-0.132,1.25,0.34,2.32,1.416,3.204c-1.23,0-2.46,0-3.689,0"/>
<path d="M52.222,50.733c-0.757,0-1.515,0-2.273,0c0.132,1.25-0.339,2.32-1.415,3.204c1.23,0,2.459,0,3.688,0"/>
<path fill="none" d="M89.455,34.999l-1.046,1.048l2.091,2.089h2.091l1.712,1.71c-0.214-0.93-0.452-1.85-0.726-2.757h-2.031  L89.455,34.999z"/>
<path fill="none" d="M60.168,7.804l-5.228,5.229h-2.095l-2.09,2.091h-2.092l-2.094,2.094h-2.091l-2.092-2.094l2.092-2.091V10.94  l-1.045-1.045H41.34l-1.044-1.047l0.076-0.076c-1.11,0.344-2.195,0.741-3.263,1.171l-0.997,0.997l2.09,2.092v2.091l-2.09,2.094  l-4.184-4.185l-2.09,2.091h-2.025c-0.079,0.058-0.161,0.111-0.239,0.169l-0.875,0.875h-0.243c-1.115,0.89-2.184,1.834-3.203,2.831  l3.446,3.446l5.229-5.228h2.091v2.091h2.093l2.09,2.09l-2.09,2.093h-2.093l-4.181,4.183h-2.095l-8.366,8.371h-6.275l-0.757,0.755  c-0.383,1.237-0.708,2.501-0.979,3.784l1.736,1.733h2.09l5.231,5.229h2.092l1.046-1.045h4.182l2.095,2.092h2.09l4.184,4.184h2.09  l2.094,2.094h2.091l2.092,2.092v2.093l-2.09,2.092l-0.001,2.088l-4.183,4.188l-0.002,2.09l-4.183,4.183v2.095l-3.138,3.135v2.093  l1.047,1.049v2.092h-2.09l-2.095-2.092v-4.185l-2.092-2.092v-10.46L20.423,60.1v-2.092l-1.046-1.044v-4.186l1.046-1.046v-2.09  l-1.046-1.048h-2.093l-4.182-4.184h-2.094l-0.23-0.229c-0.207,1.696-0.326,3.417-0.326,5.167c0,23.416,19.052,42.468,42.469,42.468  c23.417,0,42.468-19.052,42.468-42.468c0-3.045-0.33-6.016-0.941-8.883L90.5,44.411h-2.091l-1.045,1.048l-1.046-1.048v-2.092  l-4.185-4.184v-2.089l-1.046,1.042l0.002,2.095l3.135,3.136v2.092l2.094,2.092H90.5v2.092l-6.276,6.277v4.185l1.047,1.043v2.094  l-5.226,5.23v2.09l-4.187,4.183h-2.092l-2.09-2.089v-2.094l-1.049-1.046v-2.091l-1.044-1.046v-4.183l1.044-1.049v-2.092  l-3.133-3.136v-4.184l-1.05-1.046h-2.091l-1.046,1.046h-4.183l-4.183-4.186v-8.367l5.228-5.229h2.094l1.044-1.048h4.187l2.089,2.092  h2.093l1.045,1.048l1.045-1.048h2.092l1.047,1.048h4.182l1.046-1.048v-2.092h-4.186l-2.09-2.092h-2.092l-2.09-2.092l-1.049,1.046  l-2.092-2.092l-1.042,1.046h-2.094l-4.182,4.184h-2.094l-1.06-1.046v-2.092l1.046-1.046h4.186v-2.091l-1.046-1.046l1.046-1.046  h2.091l2.103-2.093l0.004-2.09l-1.05-1.048l5.232-5.228h3.244c-4.547-2.766-9.656-4.692-15.107-5.587L60.168,7.804z M86.318,63.236  l3.137-3.137l1.045,1.049v2.088l-2.091,2.095v2.093l-1.045,1.044l-1.046-1.044V63.236z M63.295,19.309v2.09l-2.092,2.093h-2.093  v-2.093l2.093-2.09H63.295z"/>
<path d="M27.574,15.293c-0.379,0.284-0.749,0.581-1.118,0.875h0.243L27.574,15.293z"/>
<path d="M42.387,6.755L42.31,6.832c0.111-0.026,0.222-0.049,0.333-0.077H42.387z"/>
<path d="M24.605,16.169l-2.091,2.092L23.253,19c1.019-0.997,2.088-1.94,3.203-2.831H24.605z"/>
<path d="M11.008,38.136v2.092l0.358,0.358c0.27-1.283,0.595-2.547,0.979-3.784L11.008,38.136z"/>
<path d="M93.64,37.089h-0.063c0.274,0.907,0.512,1.827,0.726,2.757l0.382,0.382l-0.238,0.238c0.612,2.867,0.941,5.838,0.941,8.883  c0,23.416-19.051,42.468-42.468,42.468c-23.417,0-42.469-19.052-42.469-42.468c0-1.75,0.119-3.471,0.326-5.167l-1.208-1.209  c-0.305,2.081-0.47,4.21-0.47,6.376c0,24.162,19.658,43.819,43.821,43.819c24.162,0,43.821-19.657,43.821-43.819  c0-3.875-0.513-7.632-1.461-11.213h-0.595L93.64,37.089z"/>
<path d="M40.372,8.772l1.938-1.94c-0.994,0.25-1.973,0.535-2.939,0.849l-2.262,2.263C38.177,9.514,39.262,9.117,40.372,8.772z"/>
<path d="M27.743,15.124l-0.169,0.169c0.078-0.058,0.16-0.111,0.239-0.169H27.743z"/>
<path d="M59.812,7.446c5.451,0.895,10.56,2.821,15.107,5.587h2.5c-6.998-4.737-15.43-7.506-24.499-7.506  c-3.54,0-6.979,0.433-10.278,1.229h16.48L59.812,7.446z"/>
<path d="M11.366,40.586l-0.358-0.358v-2.092l1.336-1.334C14.462,29.973,18.262,23.879,23.253,19l-0.739-0.739l2.091-2.092h1.851  c0.369-0.294,0.738-0.592,1.118-0.875l0.169-0.169h0.069c2.849-2.097,5.97-3.84,9.296-5.18l2.262-2.263  C23.777,12.765,12,26.367,9.569,42.973l1.208,1.209C10.926,42.968,11.118,41.766,11.366,40.586z"/>
<path d="M52.921,6.878c2.346,0,4.647,0.2,6.891,0.567l-0.689-0.69h-16.48c-0.11,0.028-0.222,0.05-0.333,0.077l-1.938,1.94  C44.34,7.543,48.554,6.878,52.921,6.878z"/>
<path fill="#000000" stroke="#000000" stroke-width="0.5" stroke-miterlimit="10" d="M34.801,25.726c0,0,12.094-5.719,11.521,12.038  "/>
<path fill="#000000" stroke="#000000" stroke-width="0.5" stroke-miterlimit="10" d="M25.544,41.681c0,0-1.407-7.829,4.754-12.753"/>
<path fill="none" stroke="#000000" stroke-width="0.5" stroke-miterlimit="10" d="M48.535,58.685  c-3.527-9.956-16.913-14.796-16.913-14.796s3.689-6.932,11.896-3.468"/>
<path fill="none" stroke="#000000" stroke-width="0.5" stroke-miterlimit="10" d="M48.007,22.675c0,0,4.436,1.861,1.901,15.634"/>
<path fill="none" stroke="#000000" stroke-width="0.5" stroke-miterlimit="10" d="M36.854,71.6c0,0,6.433-5.058,12.384-3.331"/>
<path fill="none" stroke="#000000" stroke-width="0.5" stroke-miterlimit="10" d="M35.925,77.736c0,0,7.467,14.31,21.899,5.945"/>
<path fill="none" stroke="#000000" stroke-width="0.5" stroke-miterlimit="10" d="M54.94,61.798c0,0,14.273-1.816,12.753,15.271"/>
<path fill="none" stroke="#000000" stroke-width="0.5" stroke-miterlimit="10" d="M67.807,84.159c0,0,12.32-5.188,10.624-12"/>
<path fill="#000000" stroke="#FFFFFF" stroke-width="0.5" stroke-miterlimit="10" d="M77.185,61.46c0,0,6.646-5.104,4.432-12.674"/>
<path fill="#000000" stroke="#FFFFFF" stroke-width="0.5" stroke-miterlimit="10" d="M58.258,44.9c0,0,9.398-12.053,20.672,0"/>
<path fill="#000000" stroke="#FFFFFF" stroke-width="0.5" stroke-miterlimit="10" d="M59.835,39.636c0,0,13.63-0.789,10.664-8.158"/>
<path fill="#000000" stroke="#FFFFFF" stroke-width="0.5" stroke-miterlimit="10" d="M29.205,72.653c0,0-6.227-14.571-1.677-22.019"/>
<path fill="#000000" stroke="#FFFFFF" stroke-width="0.5" stroke-miterlimit="10" d="M59.812,45.405c0,0,18.667,4.354,15.401,18.88"/>
<path fill="none" stroke="#000000" stroke-width="0.5" stroke-miterlimit="10" d="M34.909,24.848c0,0,6.509-6.184,12.55-3.818"/>
<path fill="none" stroke="#000000" stroke-width="0.5" stroke-miterlimit="10" d="M28.332,18.244c0,0-24.891-7.745-13.839,11.989"/>
<path fill="none" stroke="#000000" stroke-width="0.5" stroke-miterlimit="10" d="M59.109,84.159c0,0-8.895,22.611-19.399,5.553"/>
<path fill="none" stroke="#000000" stroke-width="0.5" stroke-miterlimit="10" d="M56.738,15.731c0,0,18.25-23.566,20.447-2.15"/>
<path fill="none" stroke="#000000" stroke-width="0.5" stroke-miterlimit="10" d="M79.488,73.12c0,0,19.891,6.286,13.666-10.165"/>
<path fill="none" stroke="#000000" stroke-width="0.5" stroke-miterlimit="10" d="M24.771,44.9c0,0-40.741-23.004-15.201,3.029"/>
<path fill="none" stroke="#000000" stroke-width="0.5" stroke-miterlimit="10" d="M27.743,77.883c0,0-14.183,18.275-10.998-5.229"/>
<path fill="none" stroke="#000000" stroke-width="0.5" stroke-miterlimit="10" d="M88.621,45.356c0,0,17.439-3.184,6.769,10.916"/>
<path fill="none" d="M93.436,20.117c-1.725-1.434-4.798-1.018-7.899,0.016c3.114,3.474,5.682,7.444,7.569,11.78  C95.333,25.759,95.451,21.791,93.436,20.117z"/>
<path d="M93.303,32.357c-0.201,0.544-0.412,1.102-0.646,1.679l-0.167-0.069c0.399,1.025,0.769,2.062,1.088,3.122h0.063l1.046,1.047  h0.595C94.755,36.15,94.091,34.221,93.303,32.357z"/>
<path d="M85.537,20.133c-0.458,0.152-0.916,0.318-1.37,0.494c3.495,3.803,6.306,8.242,8.239,13.123  c0.254-0.635,0.485-1.243,0.7-1.837C91.218,27.577,88.65,23.607,85.537,20.133z"/>
<path d="M77.419,13.033h-2.5c3.324,2.021,6.348,4.486,8.993,7.311c0.454-0.177,0.911-0.344,1.368-0.498  C82.939,17.279,80.306,14.986,77.419,13.033z"/>
<path d="M92.344,33.909l0.145,0.058c-0.028-0.072-0.054-0.145-0.083-0.217C92.384,33.805,92.366,33.855,92.344,33.909z"/>
<path d="M93.436,20.117c2.015,1.674,1.897,5.642-0.331,11.796c0.065,0.148,0.135,0.296,0.198,0.444  c2.395-6.493,2.518-10.699,0.349-12.501c-1.87-1.553-5.133-1.104-8.372-0.01c0.085,0.095,0.171,0.191,0.256,0.287  C88.638,19.1,91.711,18.683,93.436,20.117z"/>
<path fill="#000000" d="M85.28,19.846c-0.458,0.154-0.915,0.32-1.368,0.498c-4.163,1.623-7.945,4.013-8.235,4.198l0.182,0.285  c0.072-0.046,4.026-2.545,8.308-4.2c0.455-0.176,0.913-0.342,1.37-0.494C85.451,20.038,85.366,19.941,85.28,19.846z"/>
<path d="M93.303,32.357c-0.063-0.148-0.132-0.296-0.198-0.444c-0.214,0.594-0.445,1.202-0.7,1.837  c0.029,0.072,0.055,0.145,0.083,0.217l0.167,0.069C92.891,33.459,93.102,32.901,93.303,32.357z"/>
</svg>