<?xml version="1.0" encoding="utf-8"?>
<!-- Generator: Adobe Illustrator 16.0.4, SVG Export Plug-In . SVG Version: 6.00 Build 0)  -->
<!DOCTYPE svg PUBLIC "-//W3C//DTD SVG 1.1//EN" "http://www.w3.org/Graphics/SVG/1.1/DTD/svg11.dtd">
<svg version="1.1" xmlns="http://www.w3.org/2000/svg" xmlns:xlink="http://www.w3.org/1999/xlink" x="0px" y="0px" width="512px"
	 height="512px" viewBox="0 0 512 512" enable-background="new 0 0 512 512" xml:space="preserve">
<g id="Layer_1">
	<path id="location-17-icon" fill="#E74C3C" d="M367.988,161.988C367.988,100.14,317.851,50,256,50
		c-61.849,0-111.988,50.14-111.988,111.988c0,61.848,49.012,133.728,111.988,241.567
		C318.978,295.716,367.988,223.837,367.988,161.988z M215.838,159.271c0-22.181,17.981-40.161,40.162-40.161
		c22.182,0,40.162,17.98,40.162,40.161c0,22.18-17.98,40.16-40.162,40.16C233.819,199.431,215.838,181.45,215.838,159.271z"/>
	<ellipse fill="#E74C3C" cx="256" cy="160.5" rx="50.5" ry="54"/>
	<text transform="matrix(1 0 0 1 231.5 258.5)" fill="#FFFFFF" font-family="'MyriadPro-Regular'" font-size="219">i</text>
</g>
<g id="Layer_2">
</g>
</svg>
